<svg width="80" height="64" viewBox="0 0 80 64" fill="none" xmlns="http://www.w3.org/2000/svg">
<path d="M46.0783 46.0867H40.155V36.805C40.155 34.5917 40.11 31.7433 37.0683 31.7433C33.98 31.7433 33.5083 34.1517 33.5083 36.6417V46.0867H27.585V27H33.275V29.6017H33.3517C34.1467 28.1017 36.08 26.5183 38.9683 26.5183C44.97 26.5183 46.08 30.4683 46.08 35.61V46.0867H46.0783ZM20.895 24.3883C18.9883 24.3883 17.4567 22.845 17.4567 20.9467C17.4567 19.05 18.99 17.5083 20.895 17.5083C22.795 17.5083 24.335 19.05 24.335 20.9467C24.335 22.845 22.7933 24.3883 20.895 24.3883ZM23.865 46.0867H17.925V27H23.865V46.0867ZM49.0417 12H14.9517C13.32 12 12 13.29 12 14.8817V49.1183C12 50.7117 13.32 52 14.9517 52H49.0367C50.6667 52 52 50.7117 52 49.1183V14.8817C52 13.29 50.6667 12 49.0367 12H49.0417Z" fill="#0A66C2"/>
</svg>
